<svg width="194" height="40" viewBox="0 0 194 40" fill="none" xmlns="http://www.w3.org/2000/svg">
<path d="M23.809 21.8809L23.6695 21.9068L23.5778 22.0483C23.1133 22.762 22.6647 23.4857 22.272 24.2412C21.8793 24.9988 21.5065 25.7663 21.2334 26.5976C21.5185 26.3085 21.7776 26.0035 22.0268 25.6925C22.0747 25.6965 22.1624 25.7025 22.3099 25.7025C22.9279 25.7025 24.2755 25.5888 25.057 24.6758C25.5932 24.0498 25.7368 23.1827 25.5175 22.1121C25.96 21.9546 26.3966 21.7792 26.8272 21.5739C25.7966 21.5699 24.7978 21.7035 23.809 21.8829V21.8809ZM24.4709 24.1714C23.9944 24.7296 23.1651 24.8791 22.6129 24.915C22.6907 24.8074 22.7744 24.7017 22.8521 24.5921C23.3166 23.9342 23.7313 23.2445 24.13 22.5447C24.3473 22.4849 24.5646 22.4211 24.7799 22.3553C24.9214 23.1348 24.8277 23.7508 24.4709 24.1694V24.1714Z" fill="#FFFFFF"></path>
<path d="M35.4508 21.4722H32.7675L33.6726 18.757L30.5088 0L23.6471 14.6424H11.8116L4.94194 0L1.77822 18.759L2.68328 21.4742H0L5.12136 27.3531H2.93247L17.7304 40L32.5203 27.3531H30.3314L35.4528 21.4742L35.4508 21.4722ZM32.6738 17.4732L29.6955 14.14L30.469 4.42362L32.6738 17.4732ZM23.2445 15.4159L17.7284 25.7742L12.2063 15.4159H23.2445ZM4.98181 4.42362L5.76327 14.14L2.78495 17.4732L4.98181 4.42362ZM5.02766 28.1246H6.82183L1.70047 22.2457H3.75779L2.61351 18.8188L6.55868 14.4092L5.67755 3.37902L11.3172 15.4159H11.3332L17.2898 26.6015L13.0596 34.9943L5.02965 28.1246H5.02766ZM20.6688 36.4715H14.7899L13.6676 35.5126L17.7284 27.4528L21.7892 35.5046L20.6668 36.4715H20.6688ZM30.4231 28.1246L22.3932 34.9863L18.163 26.6015L24.1196 15.4159H24.1356L29.7832 3.37902L28.8941 14.4092L32.8393 18.8188L31.695 22.2457H33.7523L28.6389 28.1246H30.4251H30.4231Z" fill="#FFFFFF"></path>
<path d="M10.3962 24.6758C11.1777 25.5888 12.5253 25.7025 13.1433 25.7025C13.2908 25.7025 13.3785 25.6965 13.4264 25.6925C13.6756 26.0035 13.9347 26.3085 14.2198 26.5976C13.9487 25.7663 13.5759 24.9968 13.1812 24.2412C12.7884 23.4837 12.3399 22.76 11.8754 22.0483L11.7837 21.9068L11.6442 21.8809C10.6554 21.7015 9.65463 21.5699 8.62598 21.5719C9.05658 21.7792 9.49515 21.9527 9.93572 22.1101C9.71843 23.1807 9.86196 24.0478 10.3962 24.6738V24.6758ZM12.6031 24.5941C12.6808 24.7037 12.7645 24.8074 12.8423 24.917C12.2502 24.8752 11.4388 24.7037 10.9863 24.1734C10.6275 23.7548 10.5338 23.1388 10.6753 22.3573C10.8906 22.4231 11.1079 22.4869 11.3252 22.5467C11.7239 23.2445 12.1386 23.9342 12.6031 24.5941Z" fill="#FFFFFF"></path>
<path d="M49.8354 24.9958H47.4531C47.5109 24.9818 48.0731 24.8522 48.0731 23.5804V16.4356C48.0731 15.2514 47.5687 15.094 47.4671 15.0641H49.8354C51.1631 15.0641 51.6694 15.1936 52.0881 15.381C52.9692 15.7997 53.4157 16.609 53.4157 17.4164C53.4157 18.7162 52.5645 19.7269 51.2946 19.9861C52.5506 20.1156 53.8503 20.9669 53.8503 22.3683C53.8503 23.6681 53.0709 24.3897 52.0322 24.7506C51.5418 24.924 50.9936 24.9958 49.8374 24.9958H49.8354ZM50.1085 15.6402H49.1117V19.7409H50.2819C51.0335 19.7409 51.4521 19.4657 51.7551 19.1627C52.116 18.8019 52.3472 18.2537 52.3472 17.7055C52.3472 17.0855 52.1299 16.4635 51.6256 16.0748C51.2787 15.8156 50.9179 15.6422 50.1105 15.6422L50.1085 15.6402ZM50.1524 20.319H49.1137V24.4196H50.4853C51.813 24.4196 52.6941 23.8415 52.6941 22.3703C52.6941 21.7065 52.4349 21.1582 51.9286 20.7396C51.5678 20.4505 51.1053 20.321 50.1524 20.321V20.319Z" fill="#FFFFFF"></path>
<path d="M66.824 17.835C66.824 16.7665 66.1462 15.6402 64.6591 15.6402H63.4311V23.6661C63.4311 24.9659 64.067 24.9938 64.067 24.9938H61.7725C61.7725 24.9938 62.3924 24.9499 62.3924 23.6661V16.4476C62.3924 15.1059 61.7725 15.0621 61.7725 15.0621H64.6312C67.0134 15.0621 67.8647 16.3758 67.8647 17.6596C67.8647 18.7999 67.0274 19.998 65.612 20.3309C65.5841 20.3309 65.4106 20.3748 65.3807 20.3748L67.9225 23.6083C69.0488 24.8642 69.4236 24.9938 69.4236 24.9938H67.7351L63.8078 19.998H64.675C66.0745 19.998 66.826 18.9016 66.826 17.8331L66.824 17.835Z" fill="#FFFFFF"></path>
<path d="M78.315 21.1403L77.392 23.4348C77.2484 23.7957 77.1747 24.0847 77.1747 24.316C77.1747 24.6489 77.3182 24.8642 77.6073 24.9938H75.542C75.6277 24.9938 76.0324 24.8921 76.5966 23.5644L80.3643 14.5996L84.1042 23.6083C84.6085 24.8203 85.085 24.9798 85.1866 24.9938H82.7904C83.0077 24.8921 83.1513 24.7486 83.1513 24.4595C83.1513 24.2582 83.0795 23.9831 82.92 23.5943L81.9093 21.1403H78.315ZM81.68 20.5482L80.1072 16.6947L78.5622 20.5482H81.68Z" fill="#FFFFFF"></path>
<path d="M102.668 15.698C102.668 15.3372 102.508 15.092 102.148 15.0621H104.384C104.299 15.076 103.663 15.1916 103.2 16.5193L100.082 25.3387L97.2953 17.3407L94.4226 25.3387L91.5779 16.4755C91.1891 15.2335 90.5811 15.09 90.4814 15.0601H92.8777C92.5746 15.1179 92.473 15.3053 92.473 15.5365C92.473 15.8256 92.6325 16.1724 92.8059 16.7645L94.624 22.785L97.5545 14.7869L100.341 22.7271L102.492 16.5054C102.594 16.2023 102.666 15.9272 102.666 15.696L102.668 15.698Z" fill="#FFFFFF"></path>
<path d="M120.554 15.0641C120.424 15.092 119.962 15.2813 119.962 16.3778V25.4005L112.57 16.7825V23.698C112.57 24.7805 113.132 24.9679 113.292 24.9978H111.256C111.372 24.9699 111.876 24.7964 111.876 23.684V16.4655C111.876 15.8296 111.386 15.1956 110.706 15.066H112.496L119.266 22.9624V16.3798C119.266 15.2833 118.674 15.1099 118.515 15.066H120.55L120.554 15.0641Z" fill="#FFFFFF"></path>
<path d="M141.711 25.1692C141.133 25.1692 140.295 24.621 139.185 23.682C138.29 24.5911 137.337 25.1692 136.326 25.1692C134.508 25.1692 133.525 24.0867 133.525 22.6135C133.525 21.2719 134.464 20.5343 135.619 19.7987C134.853 18.8318 134.448 17.9507 134.448 17.2011C134.448 15.6422 135.647 14.8906 136.845 14.8906C138.043 14.8906 139.067 15.5844 139.067 16.8104C139.067 18.0364 137.971 18.8757 136.787 19.6551C137.494 20.5363 138.431 21.6048 139.4 22.4999C140.02 21.533 140.642 20.4785 140.642 19.6551C140.642 19.3222 140.541 19.0192 140.295 18.7899H142.171C141.94 19.0212 141.651 19.5415 141.19 20.5801C140.83 21.4034 140.397 22.0812 139.833 22.8607C140.483 23.3651 141.535 24.304 142.389 24.304C142.518 24.304 142.722 24.1884 142.879 24.0867C142.807 24.2741 142.72 24.4336 142.648 24.5492C142.373 24.9958 142.042 25.1692 141.709 25.1692H141.711ZM134.448 22.2965C134.448 23.4368 135.445 24.4755 136.627 24.4755C137.55 24.4755 138.114 23.9412 138.764 23.3053C137.74 22.3663 136.671 21.1682 135.92 20.2014C135.011 20.7795 134.446 21.3855 134.446 22.2946L134.448 22.2965ZM135.33 16.7964C135.33 17.5898 136.037 18.6723 136.5 19.2803C137.712 18.5447 138.16 17.8809 138.16 16.9559C138.16 15.8296 137.453 15.3392 136.745 15.3392C135.706 15.3392 135.33 16.1047 135.33 16.7964Z" fill="#FFFFFF"></path>
<path d="M156.108 15.6402V19.7409H158.606C159.457 19.7409 159.501 19.3222 159.501 19.3222V20.7376C159.501 20.7376 159.443 20.319 158.606 20.319H156.108V23.6541C156.108 24.924 156.744 24.9958 156.744 24.9958H154.449C154.449 24.9958 155.069 24.938 155.069 23.6541V16.4795C155.069 15.1518 154.449 15.0641 154.449 15.0641H159.674V16.5373C159.589 16.1465 159.212 15.6422 158.333 15.6422H156.11L156.108 15.6402Z" fill="#FFFFFF"></path>
<path d="M172.333 14.8906C174.859 14.8906 177.271 16.5652 177.271 19.9143C177.271 23.0042 175.178 25.1692 172.016 25.1692C169.49 25.1692 167.078 23.4946 167.078 20.1455C167.078 17.0556 169.171 14.8906 172.333 14.8906ZM171.958 15.4966C169.779 15.4966 168.234 17.243 168.234 19.9282C168.234 22.6135 169.995 24.5612 172.391 24.5612C174.57 24.5612 176.115 22.8149 176.115 20.1296C176.115 17.4443 174.354 15.4966 171.958 15.4966Z" fill="#FFFFFF"></path>
<path d="M191.056 24.7346C191.056 24.4456 190.723 23.9831 190.594 23.7817L188.572 20.6639L186.306 23.696C186.118 23.9552 185.843 24.3319 185.843 24.619C185.843 24.8064 185.959 24.9519 186.306 24.9938H184.141C184.141 24.9938 184.559 24.9659 185.598 23.5784L188.225 20.0997L185.901 16.5054C185.006 15.1199 184.458 15.0621 184.458 15.0621H186.868C186.666 15.1059 186.593 15.2056 186.593 15.3372C186.593 15.5545 186.78 15.8415 186.91 16.0449L188.917 19.1627L191.01 16.3917C191.269 16.0449 191.457 15.698 191.457 15.4388C191.457 15.2375 191.341 15.092 191.024 15.064H193.175C193.175 15.064 192.699 15.1079 191.891 16.2043L189.264 19.7129L191.588 23.3212C192.627 24.938 193.205 24.9958 193.205 24.9958H190.795C190.996 24.9679 191.054 24.8662 191.054 24.7366L191.056 24.7346Z" fill="#FFFFFF"></path>
</svg>